<?xml version="1.0" encoding="utf-8"?>
<!-- Generator: Adobe Illustrator 15.0.0, SVG Export Plug-In . SVG Version: 6.00 Build 0)  -->
<!DOCTYPE svg PUBLIC "-//W3C//DTD SVG 1.0//EN" "http://www.w3.org/TR/2001/REC-SVG-20010904/DTD/svg10.dtd">
<svg version="1.0" id="Layer_1" xmlns="http://www.w3.org/2000/svg" xmlns:xlink="http://www.w3.org/1999/xlink" x="0px" y="0px"
	 width="464px" height="167px" viewBox="0 0 464 167" style="enable-background:new 0 0 464 167;" xml:space="preserve">
<polyline style="fill:none;stroke:#E62C3B;stroke-width:19;stroke-miterlimit:10;" points="184.375,131.994 184.375,54.125 
	243.875,112.833 243.875,33.409 "/>
<polyline style="fill:none;stroke:#E62C3B;stroke-width:19.3;stroke-miterlimit:10;" points="133.934,122.359 84.563,122.359 
	84.563,33.409 "/>
<path style="stroke:#FFFFFF;stroke-width:19;stroke-miterlimit:10;" d="M262.875,11.25"/>
<line style="stroke:#E62C3B;stroke-width:19;stroke-miterlimit:10;" x1="152.403" y1="33.409" x2="152.403" y2="131.994"/>
<line style="stroke:#E62C3B;stroke-width:18;stroke-miterlimit:10;" x1="316.785" y1="82.64" x2="280.214" y2="82.64"/>
<polyline style="fill:none;stroke:#E62C3B;stroke-width:18;stroke-miterlimit:10;" points="325.479,42.146 280,42.146 280,122.359 
	325.479,122.359 "/>
<path style="fill:none;stroke:#E62C3B;stroke-width:19;stroke-miterlimit:10;" d="M340.531,104.065
	c1.956,9.922,10.102,17.917,21.089,17.904c11.718-0.013,21.227-8.965,21.239-19.993c0.012-11.028-9.565-18.495-21.196-19.946
	l0.175,0.016c-11.631-1.451-21.208-8.918-21.196-19.946s9.521-19.979,21.238-19.993c10.987-0.012,19.133,7.982,21.089,17.904"/>
</svg>
